<svg width="223" height="220" viewBox="0 0 223 220" fill="none" xmlns="http://www.w3.org/2000/svg">
<g filter="url(#filter0_d_346_429)">
<circle cx="105.975" cy="110.025" r="101.475" fill="#FFF981" stroke="white"/>
<circle cx="116.709" cy="101.975" r="101.975" fill="#51988B"/>
<g filter="url(#filter1_d_346_429)">
<path d="M37.4462 119.339C35.5262 119.339 33.6902 119.051 31.9382 118.475C30.1862 117.875 28.8062 117.107 27.7982 116.171L29.1302 113.363C30.0902 114.203 31.3142 114.899 32.8022 115.451C34.2902 116.003 35.8382 116.279 37.4462 116.279C38.9102 116.279 40.0982 116.111 41.0102 115.775C41.9222 115.439 42.5942 114.983 43.0262 114.407C43.4582 113.807 43.6742 113.135 43.6742 112.391C43.6742 111.527 43.3862 110.831 42.8102 110.303C42.2582 109.775 41.5262 109.355 40.6142 109.043C39.7262 108.707 38.7422 108.419 37.6622 108.179C36.5822 107.939 35.4902 107.663 34.3862 107.351C33.3062 107.015 32.3102 106.595 31.3982 106.091C30.5102 105.587 29.7902 104.915 29.2382 104.075C28.6862 103.211 28.4102 102.107 28.4102 100.763C28.4102 99.4666 28.7462 98.2786 29.4182 97.1986C30.1142 96.0946 31.1702 95.2186 32.5862 94.5706C34.0262 93.8986 35.8502 93.5626 38.0582 93.5626C39.5222 93.5626 40.9742 93.7546 42.4142 94.1386C43.8542 94.5226 45.1022 95.0746 46.1582 95.7946L44.9702 98.6746C43.8902 97.9546 42.7502 97.4386 41.5502 97.1266C40.3502 96.7906 39.1862 96.6226 38.0582 96.6226C36.6422 96.6226 35.4782 96.8026 34.5662 97.1626C33.6542 97.5226 32.9822 98.0026 32.5502 98.6026C32.1422 99.2026 31.9382 99.8746 31.9382 100.619C31.9382 101.507 32.2142 102.215 32.7662 102.743C33.3422 103.271 34.0742 103.691 34.9622 104.003C35.8742 104.315 36.8702 104.603 37.9502 104.867C39.0302 105.107 40.1102 105.383 41.1902 105.695C42.2942 106.007 43.2902 106.415 44.1782 106.919C45.0902 107.423 45.8222 108.095 46.3742 108.935C46.9262 109.775 47.2022 110.855 47.2022 112.175C47.2022 113.447 46.8542 114.635 46.1582 115.739C45.4622 116.819 44.3822 117.695 42.9182 118.367C41.4782 119.015 39.6542 119.339 37.4462 119.339ZM62.9015 119.339C59.5895 119.339 56.9855 118.391 55.0895 116.495C53.1935 114.599 52.2455 111.827 52.2455 108.179V93.8506H55.8455V108.035C55.8455 110.843 56.4575 112.895 57.6815 114.191C58.9295 115.487 60.6815 116.135 62.9375 116.135C65.2175 116.135 66.9695 115.487 68.1935 114.191C69.4415 112.895 70.0655 110.843 70.0655 108.035V93.8506H73.5575V108.179C73.5575 111.827 72.6095 114.599 70.7135 116.495C68.8415 118.391 66.2375 119.339 62.9015 119.339ZM80.9381 119.051V93.8506H92.2421C95.1461 93.8506 97.3781 94.4386 98.9381 95.6146C100.498 96.7666 101.278 98.3506 101.278 100.367C101.278 101.735 100.966 102.887 100.342 103.823C99.7421 104.759 98.9261 105.479 97.8941 105.983C96.8621 106.487 95.7461 106.739 94.5461 106.739L95.1941 105.659C96.6341 105.659 97.9061 105.911 99.0101 106.415C100.114 106.919 100.99 107.663 101.638 108.647C102.286 109.607 102.61 110.807 102.61 112.247C102.61 114.407 101.794 116.087 100.162 117.287C98.5541 118.463 96.1541 119.051 92.9621 119.051H80.9381ZM84.5381 116.135H92.8181C94.8101 116.135 96.3341 115.799 97.3901 115.127C98.4461 114.455 98.9741 113.399 98.9741 111.959C98.9741 110.495 98.4461 109.427 97.3901 108.755C96.3341 108.083 94.8101 107.747 92.8181 107.747H84.2141V104.831H91.9181C93.7421 104.831 95.1581 104.495 96.1661 103.823C97.1741 103.151 97.6781 102.143 97.6781 100.799C97.6781 99.4546 97.1741 98.4466 96.1661 97.7746C95.1581 97.1026 93.7421 96.7666 91.9181 96.7666H84.5381V116.135ZM108.184 119.051V93.8506H111.136L122.44 112.895H120.856L132.016 93.8506H134.968L135.004 119.051H131.548L131.512 99.2866H132.34L122.404 115.991H120.748L110.74 99.2866H111.64V119.051H108.184ZM142.567 119.051V93.8506H146.167V119.051H142.567ZM158.716 119.051V96.9826H150.076V93.8506H170.92V96.9826H162.28V119.051H158.716ZM180.692 119.051L192.104 93.8506H195.668L207.116 119.051H203.336L193.148 95.8666H194.588L184.4 119.051H180.692ZM185.552 112.751L186.524 109.871H200.708L201.752 112.751H185.552ZM66.7665 155.339C64.8465 155.339 63.0105 155.051 61.2585 154.475C59.5065 153.875 58.1265 153.107 57.1185 152.171L58.4505 149.363C59.4105 150.203 60.6345 150.899 62.1225 151.451C63.6105 152.003 65.1585 152.279 66.7665 152.279C68.2305 152.279 69.4185 152.111 70.3305 151.775C71.2425 151.439 71.9145 150.983 72.3465 150.407C72.7785 149.807 72.9945 149.135 72.9945 148.391C72.9945 147.527 72.7065 146.831 72.1305 146.303C71.5785 145.775 70.8465 145.355 69.9345 145.043C69.0465 144.707 68.0625 144.419 66.9825 144.179C65.9025 143.939 64.8105 143.663 63.7065 143.351C62.6265 143.015 61.6305 142.595 60.7185 142.091C59.8305 141.587 59.1105 140.915 58.5585 140.075C58.0065 139.211 57.7305 138.107 57.7305 136.763C57.7305 135.467 58.0665 134.279 58.7385 133.199C59.4345 132.095 60.4905 131.219 61.9065 130.571C63.3465 129.899 65.1705 129.563 67.3785 129.563C68.8425 129.563 70.2945 129.755 71.7345 130.139C73.1745 130.523 74.4225 131.075 75.4785 131.795L74.2905 134.675C73.2105 133.955 72.0705 133.439 70.8705 133.127C69.6705 132.791 68.5065 132.623 67.3785 132.623C65.9625 132.623 64.7985 132.803 63.8865 133.163C62.9745 133.523 62.3025 134.003 61.8705 134.603C61.4625 135.203 61.2585 135.875 61.2585 136.619C61.2585 137.507 61.5345 138.215 62.0865 138.743C62.6625 139.271 63.3945 139.691 64.2825 140.003C65.1945 140.315 66.1905 140.603 67.2705 140.867C68.3505 141.107 69.4305 141.383 70.5105 141.695C71.6145 142.007 72.6105 142.415 73.4985 142.919C74.4105 143.423 75.1425 144.095 75.6945 144.935C76.2465 145.775 76.5225 146.855 76.5225 148.175C76.5225 149.447 76.1745 150.635 75.4785 151.739C74.7825 152.819 73.7025 153.695 72.2385 154.367C70.7985 155.015 68.9745 155.339 66.7665 155.339ZM86.4343 155.051V132.983H77.7943V129.851H98.6383V132.983H89.9983V155.051H86.4343ZM113.584 155.339C111.664 155.339 109.876 155.015 108.22 154.367C106.588 153.719 105.172 152.819 103.972 151.667C102.772 150.491 101.836 149.123 101.164 147.563C100.492 146.003 100.156 144.299 100.156 142.451C100.156 140.603 100.492 138.899 101.164 137.339C101.836 135.779 102.772 134.423 103.972 133.271C105.172 132.095 106.588 131.183 108.22 130.535C109.852 129.887 111.64 129.563 113.584 129.563C115.504 129.563 117.268 129.887 118.876 130.535C120.508 131.159 121.924 132.059 123.124 133.235C124.348 134.387 125.284 135.743 125.932 137.303C126.604 138.863 126.94 140.579 126.94 142.451C126.94 144.323 126.604 146.039 125.932 147.599C125.284 149.159 124.348 150.527 123.124 151.703C121.924 152.855 120.508 153.755 118.876 154.403C117.268 155.027 115.504 155.339 113.584 155.339ZM113.584 152.135C114.976 152.135 116.26 151.895 117.436 151.415C118.636 150.935 119.668 150.263 120.532 149.399C121.42 148.511 122.104 147.479 122.584 146.303C123.088 145.127 123.34 143.843 123.34 142.451C123.34 141.059 123.088 139.775 122.584 138.599C122.104 137.423 121.42 136.403 120.532 135.539C119.668 134.651 118.636 133.967 117.436 133.487C116.26 133.007 114.976 132.767 113.584 132.767C112.168 132.767 110.86 133.007 109.66 133.487C108.484 133.967 107.452 134.651 106.564 135.539C105.676 136.403 104.98 137.423 104.476 138.599C103.996 139.775 103.756 141.059 103.756 142.451C103.756 143.843 103.996 145.127 104.476 146.303C104.98 147.479 105.676 148.511 106.564 149.399C107.452 150.263 108.484 150.935 109.66 151.415C110.86 151.895 112.168 152.135 113.584 152.135ZM132.442 155.051V129.851H142.27C144.478 129.851 146.362 130.199 147.922 130.895C149.482 131.591 150.682 132.599 151.522 133.919C152.362 135.239 152.782 136.811 152.782 138.635C152.782 140.459 152.362 142.031 151.522 143.351C150.682 144.647 149.482 145.643 147.922 146.339C146.362 147.035 144.478 147.383 142.27 147.383H134.422L136.042 145.727V155.051H132.442ZM149.29 155.051L142.882 145.907H146.734L153.214 155.051H149.29ZM136.042 146.087L134.422 144.323H142.162C144.466 144.323 146.206 143.831 147.382 142.847C148.582 141.839 149.182 140.435 149.182 138.635C149.182 136.835 148.582 135.443 147.382 134.459C146.206 133.475 144.466 132.983 142.162 132.983H134.422L136.042 131.183V146.087ZM164.331 155.051V145.403L165.159 147.635L154.323 129.851H158.175L167.283 144.863H165.195L174.339 129.851H177.903L167.103 147.635L167.895 145.403V155.051H164.331Z" fill="white"/>
</g>
<line x1="117" y1="35.5" x2="117" y2="70.5" stroke="white" stroke-width="5" stroke-linecap="round"/>
<line x1="134.5" y1="53" x2="99.5" y2="53" stroke="white" stroke-width="5" stroke-linecap="round"/>
</g>
<defs>
<filter id="filter0_d_346_429" x="0" y="0" width="222.684" height="220" filterUnits="userSpaceOnUse" color-interpolation-filters="sRGB">
<feFlood flood-opacity="0" result="BackgroundImageFix"/>
<feColorMatrix in="SourceAlpha" type="matrix" values="0 0 0 0 0 0 0 0 0 0 0 0 0 0 0 0 0 0 127 0" result="hardAlpha"/>
<feOffset dy="4"/>
<feGaussianBlur stdDeviation="2"/>
<feComposite in2="hardAlpha" operator="out"/>
<feColorMatrix type="matrix" values="0 0 0 0 0 0 0 0 0 0 0 0 0 0 0 0 0 0 0.25 0"/>
<feBlend mode="normal" in2="BackgroundImageFix" result="effect1_dropShadow_346_429"/>
<feBlend mode="normal" in="SourceGraphic" in2="effect1_dropShadow_346_429" result="shape"/>
</filter>
<filter id="filter1_d_346_429" x="23.7982" y="93.5626" width="187.318" height="69.776" filterUnits="userSpaceOnUse" color-interpolation-filters="sRGB">
<feFlood flood-opacity="0" result="BackgroundImageFix"/>
<feColorMatrix in="SourceAlpha" type="matrix" values="0 0 0 0 0 0 0 0 0 0 0 0 0 0 0 0 0 0 127 0" result="hardAlpha"/>
<feOffset dy="4"/>
<feGaussianBlur stdDeviation="2"/>
<feComposite in2="hardAlpha" operator="out"/>
<feColorMatrix type="matrix" values="0 0 0 0 0.516667 0 0 0 0 0.499961 0 0 0 0 0.0990278 0 0 0 0.25 0"/>
<feBlend mode="normal" in2="BackgroundImageFix" result="effect1_dropShadow_346_429"/>
<feBlend mode="normal" in="SourceGraphic" in2="effect1_dropShadow_346_429" result="shape"/>
</filter>
</defs>
</svg>
