<svg width="480" height="197" viewBox="0 0 480 197" fill="none" xmlns="http://www.w3.org/2000/svg">
<g filter="url(#filter0_d_347_445)">
<rect x="4" y="24" width="461.221" height="165" rx="60" fill="#FFF981"/>
<rect x="4.5" y="24.5" width="460.221" height="164" rx="59.5" stroke="white" stroke-opacity="0.65"/>
</g>
<g filter="url(#filter1_d_347_445)">
<rect x="14" width="461.221" height="165" rx="60" fill="#EDB2A6"/>
<rect x="14.5" y="0.5" width="460.221" height="164" rx="59.5" stroke="white" stroke-opacity="0.65"/>
</g>
<path d="M117.532 48.52H133.66V54.76H117.532V48.52ZM118.108 67H110.332V33.4H135.724V39.64H118.108V67ZM143.868 67V33.4H151.644V67H143.868ZM162.498 67V33.4H170.274V60.664H187.122V67H162.498ZM198.166 67V39.736H187.414V33.4H216.694V39.736H205.942V67H198.166ZM230.91 46.936H247.086V52.984H230.91V46.936ZM231.486 60.76H249.774V67H223.758V33.4H249.15V39.64H231.486V60.76ZM258.841 67V33.4H273.385C276.393 33.4 278.985 33.896 281.161 34.888C283.337 35.848 285.017 37.24 286.201 39.064C287.385 40.888 287.977 43.064 287.977 45.592C287.977 48.088 287.385 50.248 286.201 52.072C285.017 53.864 283.337 55.24 281.161 56.2C278.985 57.16 276.393 57.64 273.385 57.64H263.161L266.617 54.232V67H258.841ZM280.201 67L271.801 54.808H280.105L288.601 67H280.201ZM266.617 55.096L263.161 51.448H272.953C275.353 51.448 277.145 50.936 278.329 49.912C279.513 48.856 280.105 47.416 280.105 45.592C280.105 43.736 279.513 42.296 278.329 41.272C277.145 40.248 275.353 39.736 272.953 39.736H263.161L266.617 36.04V55.096ZM313.492 67V33.4H329.908C334.132 33.4 337.3 34.2 339.412 35.8C341.556 37.4 342.628 39.512 342.628 42.136C342.628 43.896 342.196 45.432 341.332 46.744C340.468 48.024 339.284 49.016 337.78 49.72C336.276 50.424 334.548 50.776 332.596 50.776L333.508 48.808C335.62 48.808 337.492 49.16 339.124 49.864C340.756 50.536 342.02 51.544 342.916 52.888C343.844 54.232 344.308 55.88 344.308 57.832C344.308 60.712 343.172 62.968 340.9 64.6C338.628 66.2 335.284 67 330.868 67H313.492ZM321.22 61.144H330.292C332.308 61.144 333.828 60.824 334.852 60.184C335.908 59.512 336.436 58.456 336.436 57.016C336.436 55.608 335.908 54.568 334.852 53.896C333.828 53.192 332.308 52.84 330.292 52.84H320.644V47.176H328.948C330.836 47.176 332.276 46.856 333.268 46.216C334.292 45.544 334.804 44.536 334.804 43.192C334.804 41.88 334.292 40.904 333.268 40.264C332.276 39.592 330.836 39.256 328.948 39.256H321.22V61.144ZM360.724 67V53.272L362.5 57.976L347.716 33.4H355.972L367.3 52.264H362.548L373.924 33.4H381.556L366.772 57.976L368.5 53.272V67H360.724ZM172.539 119V91.736H161.787V85.4H191.067V91.736H180.315V119H172.539ZM213.982 119.576C211.326 119.576 208.862 119.144 206.59 118.28C204.35 117.416 202.398 116.2 200.734 114.632C199.102 113.064 197.822 111.224 196.894 109.112C195.998 107 195.55 104.696 195.55 102.2C195.55 99.704 195.998 97.4 196.894 95.288C197.822 93.176 199.118 91.336 200.782 89.768C202.446 88.2 204.398 86.984 206.638 86.12C208.878 85.256 211.31 84.824 213.934 84.824C216.59 84.824 219.022 85.256 221.23 86.12C223.47 86.984 225.406 88.2 227.038 89.768C228.702 91.336 229.998 93.176 230.926 95.288C231.854 97.368 232.318 99.672 232.318 102.2C232.318 104.696 231.854 107.016 230.926 109.16C229.998 111.272 228.702 113.112 227.038 114.68C225.406 116.216 223.47 117.416 221.23 118.28C219.022 119.144 216.606 119.576 213.982 119.576ZM213.934 112.952C215.438 112.952 216.814 112.696 218.062 112.184C219.342 111.672 220.462 110.936 221.422 109.976C222.382 109.016 223.118 107.88 223.63 106.568C224.174 105.256 224.446 103.8 224.446 102.2C224.446 100.6 224.174 99.144 223.63 97.832C223.118 96.52 222.382 95.384 221.422 94.424C220.494 93.464 219.39 92.728 218.11 92.216C216.83 91.704 215.438 91.448 213.934 91.448C212.43 91.448 211.038 91.704 209.758 92.216C208.51 92.728 207.406 93.464 206.446 94.424C205.486 95.384 204.734 96.52 204.19 97.832C203.678 99.144 203.422 100.6 203.422 102.2C203.422 103.768 203.678 105.224 204.19 106.568C204.734 107.88 205.47 109.016 206.398 109.976C207.358 110.936 208.478 111.672 209.758 112.184C211.038 112.696 212.43 112.952 213.934 112.952ZM241.042 119V85.4H255.586C258.594 85.4 261.186 85.896 263.362 86.888C265.538 87.848 267.218 89.24 268.402 91.064C269.586 92.888 270.178 95.064 270.178 97.592C270.178 100.088 269.586 102.248 268.402 104.072C267.218 105.896 265.538 107.304 263.362 108.296C261.186 109.256 258.594 109.736 255.586 109.736H245.362L248.818 106.232V119H241.042ZM248.818 107.096L245.362 103.4H255.154C257.554 103.4 259.346 102.888 260.53 101.864C261.714 100.84 262.306 99.416 262.306 97.592C262.306 95.736 261.714 94.296 260.53 93.272C259.346 92.248 257.554 91.736 255.154 91.736H245.362L248.818 88.04V107.096ZM278.609 119V85.4H286.385V119H278.609ZM313.319 119.576C310.727 119.576 308.311 119.16 306.071 118.328C303.863 117.464 301.943 116.248 300.311 114.68C298.679 113.112 297.399 111.272 296.471 109.16C295.575 107.048 295.127 104.728 295.127 102.2C295.127 99.672 295.575 97.352 296.471 95.24C297.399 93.128 298.679 91.288 300.311 89.72C301.975 88.152 303.911 86.952 306.119 86.12C308.327 85.256 310.743 84.824 313.367 84.824C316.279 84.824 318.903 85.336 321.239 86.36C323.607 87.352 325.591 88.824 327.191 90.776L322.199 95.384C321.047 94.072 319.767 93.096 318.359 92.456C316.951 91.784 315.415 91.448 313.751 91.448C312.183 91.448 310.743 91.704 309.431 92.216C308.119 92.728 306.983 93.464 306.023 94.424C305.063 95.384 304.311 96.52 303.767 97.832C303.255 99.144 302.999 100.6 302.999 102.2C302.999 103.8 303.255 105.256 303.767 106.568C304.311 107.88 305.063 109.016 306.023 109.976C306.983 110.936 308.119 111.672 309.431 112.184C310.743 112.696 312.183 112.952 313.751 112.952C315.415 112.952 316.951 112.632 318.359 111.992C319.767 111.32 321.047 110.312 322.199 108.968L327.191 113.576C325.591 115.528 323.607 117.016 321.239 118.04C318.903 119.064 316.263 119.576 313.319 119.576Z" fill="white"/>
<defs>
<filter id="filter0_d_347_445" x="0" y="24" width="469.221" height="173" filterUnits="userSpaceOnUse" color-interpolation-filters="sRGB">
<feFlood flood-opacity="0" result="BackgroundImageFix"/>
<feColorMatrix in="SourceAlpha" type="matrix" values="0 0 0 0 0 0 0 0 0 0 0 0 0 0 0 0 0 0 127 0" result="hardAlpha"/>
<feOffset dy="4"/>
<feGaussianBlur stdDeviation="2"/>
<feComposite in2="hardAlpha" operator="out"/>
<feColorMatrix type="matrix" values="0 0 0 0 0 0 0 0 0 0 0 0 0 0 0 0 0 0 0.25 0"/>
<feBlend mode="normal" in2="BackgroundImageFix" result="effect1_dropShadow_347_445"/>
<feBlend mode="normal" in="SourceGraphic" in2="effect1_dropShadow_347_445" result="shape"/>
</filter>
<filter id="filter1_d_347_445" x="10" y="0" width="469.221" height="173" filterUnits="userSpaceOnUse" color-interpolation-filters="sRGB">
<feFlood flood-opacity="0" result="BackgroundImageFix"/>
<feColorMatrix in="SourceAlpha" type="matrix" values="0 0 0 0 0 0 0 0 0 0 0 0 0 0 0 0 0 0 127 0" result="hardAlpha"/>
<feOffset dy="4"/>
<feGaussianBlur stdDeviation="2"/>
<feComposite in2="hardAlpha" operator="out"/>
<feColorMatrix type="matrix" values="0 0 0 0 0 0 0 0 0 0 0 0 0 0 0 0 0 0 0.25 0"/>
<feBlend mode="normal" in2="BackgroundImageFix" result="effect1_dropShadow_347_445"/>
<feBlend mode="normal" in="SourceGraphic" in2="effect1_dropShadow_347_445" result="shape"/>
</filter>
</defs>
</svg>
