<svg width="177" height="223" viewBox="0 0 177 223" fill="none" xmlns="http://www.w3.org/2000/svg">
<g filter="url(#filter0_d_349_446)">
<circle cx="86.5" cy="116.5" r="84.125" fill="#BAE7D1" stroke="white" stroke-width="0.75"/>
<path d="M54.9774 154.478V132.41H46.3374V129.278H67.1814V132.41H58.5414V154.478H54.9774ZM71.1023 154.478V129.278H74.7023V154.478H71.1023ZM82.2468 154.478V129.278H92.0748C94.2828 129.278 96.1668 129.626 97.7268 130.322C99.2868 131.018 100.487 132.026 101.327 133.346C102.167 134.666 102.587 136.238 102.587 138.062C102.587 139.886 102.167 141.458 101.327 142.778C100.487 144.074 99.2868 145.082 97.7268 145.802C96.1668 146.498 94.2828 146.846 92.0748 146.846H84.2268L85.8468 145.154V154.478H82.2468ZM85.8468 145.514L84.2268 143.714H91.9668C94.2708 143.714 96.0108 143.222 97.1868 142.238C98.3868 141.254 98.9868 139.862 98.9868 138.062C98.9868 136.262 98.3868 134.87 97.1868 133.886C96.0108 132.902 94.2708 132.41 91.9668 132.41H84.2268L85.8468 130.61V145.514ZM115.571 154.766C113.651 154.766 111.815 154.478 110.063 153.902C108.311 153.302 106.931 152.534 105.923 151.598L107.255 148.79C108.215 149.63 109.439 150.326 110.927 150.878C112.415 151.43 113.963 151.706 115.571 151.706C117.035 151.706 118.223 151.538 119.135 151.202C120.047 150.866 120.719 150.41 121.151 149.834C121.583 149.234 121.799 148.562 121.799 147.818C121.799 146.954 121.511 146.258 120.935 145.73C120.383 145.202 119.651 144.782 118.739 144.47C117.851 144.134 116.867 143.846 115.787 143.606C114.707 143.366 113.615 143.09 112.511 142.778C111.431 142.442 110.435 142.022 109.523 141.518C108.635 141.014 107.915 140.342 107.363 139.502C106.811 138.638 106.535 137.534 106.535 136.19C106.535 134.894 106.871 133.706 107.543 132.626C108.239 131.522 109.295 130.646 110.711 129.998C112.151 129.326 113.975 128.99 116.183 128.99C117.647 128.99 119.099 129.182 120.539 129.566C121.979 129.95 123.227 130.502 124.283 131.222L123.095 134.102C122.015 133.382 120.875 132.866 119.675 132.554C118.475 132.218 117.311 132.05 116.183 132.05C114.767 132.05 113.603 132.23 112.691 132.59C111.779 132.95 111.107 133.43 110.675 134.03C110.267 134.63 110.063 135.302 110.063 136.046C110.063 136.934 110.339 137.642 110.891 138.17C111.467 138.698 112.199 139.118 113.087 139.43C113.999 139.742 114.995 140.03 116.075 140.294C117.155 140.534 118.235 140.81 119.315 141.122C120.419 141.434 121.415 141.842 122.303 142.346C123.215 142.85 123.947 143.522 124.499 144.362C125.051 145.202 125.327 146.282 125.327 147.602C125.327 148.874 124.979 150.062 124.283 151.166C123.587 152.246 122.507 153.122 121.043 153.794C119.603 154.442 117.779 154.766 115.571 154.766Z" fill="white"/>
<path d="M79.0664 92.672C79.0664 90.432 79.4184 88.448 80.1224 86.72C80.8904 84.992 81.8184 83.456 82.9064 82.112C84.0584 80.768 85.2744 79.52 86.5544 78.368C87.8344 77.216 89.0184 76.128 90.1064 75.104C91.2584 74.016 92.1864 72.896 92.8904 71.744C93.6584 70.592 94.0424 69.312 94.0424 67.904C94.0424 65.6 93.0824 63.744 91.1624 62.336C89.3064 60.928 86.8104 60.224 83.6744 60.224C80.6664 60.224 77.9784 60.864 75.6104 62.144C73.2424 63.36 71.2904 65.088 69.7544 67.328L58.1384 60.512C60.6984 56.608 64.2504 53.504 68.7944 51.2C73.3384 48.832 78.8424 47.648 85.3064 47.648C90.1064 47.648 94.3304 48.352 97.9784 49.76C101.626 51.104 104.474 53.088 106.522 55.712C108.634 58.336 109.69 61.568 109.69 65.408C109.69 67.904 109.306 70.112 108.538 72.032C107.77 73.952 106.778 75.616 105.562 77.024C104.346 78.432 103.034 79.744 101.626 80.96C100.282 82.176 99.0024 83.36 97.7864 84.512C96.5704 85.664 95.5464 86.88 94.7144 88.16C93.9464 89.44 93.5624 90.944 93.5624 92.672H79.0664ZM86.3624 116.768C83.6744 116.768 81.4664 115.904 79.7384 114.176C78.0104 112.448 77.1464 110.4 77.1464 108.032C77.1464 105.6 78.0104 103.584 79.7384 101.984C81.4664 100.32 83.6744 99.488 86.3624 99.488C89.1144 99.488 91.3224 100.32 92.9864 101.984C94.7144 103.584 95.5784 105.6 95.5784 108.032C95.5784 110.4 94.7144 112.448 92.9864 114.176C91.3224 115.904 89.1144 116.768 86.3624 116.768Z" fill="white"/>
</g>
<defs>
<filter id="filter0_d_349_446" x="0" y="30" width="177" height="177" filterUnits="userSpaceOnUse" color-interpolation-filters="sRGB">
<feFlood flood-opacity="0" result="BackgroundImageFix"/>
<feColorMatrix in="SourceAlpha" type="matrix" values="0 0 0 0 0 0 0 0 0 0 0 0 0 0 0 0 0 0 127 0" result="hardAlpha"/>
<feOffset dx="2" dy="2"/>
<feGaussianBlur stdDeviation="2"/>
<feComposite in2="hardAlpha" operator="out"/>
<feColorMatrix type="matrix" values="0 0 0 0 0.32776 0 0 0 0 0.3875 0 0 0 0 0.376747 0 0 0 0.51 0"/>
<feBlend mode="normal" in2="BackgroundImageFix" result="effect1_dropShadow_349_446"/>
<feBlend mode="normal" in="SourceGraphic" in2="effect1_dropShadow_349_446" result="shape"/>
</filter>
</defs>
</svg>
