<svg width="262" height="270" viewBox="0 0 262 270" fill="none" xmlns="http://www.w3.org/2000/svg">
<path d="M64.2343 6.2L59.9383 19.04L55.6903 6.2H52.8103L48.4663 18.968L44.2903 6.2H41.0503L46.6183 23H49.9543L54.1783 10.568L58.3303 23H61.6423L67.2103 6.2H64.2343ZM72.8721 20.384V15.752H80.9841V13.184H72.8721V8.816H82.0161V6.2H69.7521V23H82.3521V20.384H72.8721ZM85.8302 23H97.7342V20.36H88.9502V6.2H85.8302V23ZM107.669 23.24C110.429 23.24 112.781 22.256 114.341 20.432L112.325 18.512C111.101 19.856 109.589 20.504 107.837 20.504C104.357 20.504 101.837 18.056 101.837 14.6C101.837 11.144 104.357 8.696 107.837 8.696C109.589 8.696 111.101 9.344 112.325 10.664L114.341 8.768C112.781 6.944 110.429 5.96 107.693 5.96C102.533 5.96 98.6927 9.584 98.6927 14.6C98.6927 19.616 102.533 23.24 107.669 23.24ZM124.827 23.24C130.035 23.24 133.875 19.592 133.875 14.6C133.875 9.608 130.035 5.96 124.827 5.96C119.619 5.96 115.779 9.632 115.779 14.6C115.779 19.568 119.619 23.24 124.827 23.24ZM124.827 20.504C121.443 20.504 118.923 18.032 118.923 14.6C118.923 11.168 121.443 8.696 124.827 8.696C128.211 8.696 130.731 11.168 130.731 14.6C130.731 18.032 128.211 20.504 124.827 20.504ZM155.566 23L155.542 6.2H152.974L146.422 17.336L139.75 6.2H137.182V23H140.158V12.008L145.678 21.08H147.07L152.59 11.864L152.614 23H155.566ZM163.224 20.384V15.752H171.336V13.184H163.224V8.816H172.368V6.2H160.104V23H172.704V20.384H163.224ZM186.223 23H189.343V8.84H194.911V6.2H180.655V8.84H186.223V23ZM204.866 23.24C210.074 23.24 213.914 19.592 213.914 14.6C213.914 9.608 210.074 5.96 204.866 5.96C199.658 5.96 195.818 9.632 195.818 14.6C195.818 19.568 199.658 23.24 204.866 23.24ZM204.866 20.504C201.482 20.504 198.962 18.032 198.962 14.6C198.962 11.168 201.482 8.696 204.866 8.696C208.25 8.696 210.77 11.168 210.77 14.6C210.77 18.032 208.25 20.504 204.866 20.504ZM6.93957 197.216C6.05157 197.216 5.28357 197.006 4.63557 196.586C3.98757 196.154 3.48957 195.572 3.14157 194.84C2.79357 194.108 2.61957 193.298 2.61957 192.41C2.61957 191.51 2.81157 190.7 3.19557 189.98C3.57957 189.248 4.13157 188.672 4.85157 188.252C5.57157 187.82 6.43557 187.604 7.44357 187.604C8.41557 187.604 9.24957 187.814 9.94557 188.234C10.6416 188.654 11.1756 189.224 11.5476 189.944C11.9316 190.664 12.1236 191.468 12.1236 192.356V197H10.4496V195.128H10.4136C10.2336 195.476 9.98757 195.812 9.67557 196.136C9.37557 196.448 8.99757 196.706 8.54157 196.91C8.08557 197.114 7.55157 197.216 6.93957 197.216ZM7.37157 195.794C7.97157 195.794 8.49957 195.65 8.95557 195.362C9.42357 195.062 9.78357 194.654 10.0356 194.138C10.2996 193.61 10.4316 193.022 10.4316 192.374C10.4316 191.738 10.3056 191.168 10.0536 190.664C9.81357 190.16 9.46557 189.764 9.00957 189.476C8.55357 189.176 8.01957 189.026 7.40757 189.026C6.75957 189.026 6.20157 189.176 5.73357 189.476C5.27757 189.776 4.92357 190.184 4.67157 190.7C4.43157 191.204 4.31157 191.78 4.31157 192.428C4.31157 193.052 4.43157 193.622 4.67157 194.138C4.91157 194.642 5.25957 195.044 5.71557 195.344C6.17157 195.644 6.72357 195.794 7.37157 195.794ZM14.7603 197V191.69C14.7603 190.874 14.9403 190.16 15.3003 189.548C15.6723 188.936 16.1823 188.462 16.8303 188.126C17.4783 187.778 18.2163 187.604 19.0443 187.604C19.8843 187.604 20.6223 187.778 21.2583 188.126C21.9063 188.462 22.4103 188.936 22.7703 189.548C23.1423 190.16 23.3283 190.874 23.3283 191.69V197H21.6723V191.708C21.6723 191.156 21.5463 190.682 21.2943 190.286C21.0543 189.878 20.7303 189.566 20.3223 189.35C19.9263 189.134 19.5003 189.026 19.0443 189.026C18.5883 189.026 18.1563 189.134 17.7483 189.35C17.3523 189.566 17.0283 189.878 16.7763 190.286C16.5363 190.682 16.4163 191.156 16.4163 191.708V197H14.7603ZM30.7212 197V187.82H32.3952V197H30.7212ZM31.5672 186.362C31.2672 186.362 31.0032 186.254 30.7752 186.038C30.5592 185.81 30.4512 185.546 30.4512 185.246C30.4512 184.946 30.5592 184.688 30.7752 184.472C31.0032 184.244 31.2672 184.13 31.5672 184.13C31.8672 184.13 32.1252 184.244 32.3412 184.472C32.5692 184.688 32.6832 184.946 32.6832 185.246C32.6832 185.546 32.5692 185.81 32.3412 186.038C32.1252 186.254 31.8672 186.362 31.5672 186.362ZM35.0103 197V191.69C35.0103 190.874 35.1903 190.16 35.5503 189.548C35.9223 188.936 36.4323 188.462 37.0803 188.126C37.7283 187.778 38.4663 187.604 39.2943 187.604C40.1343 187.604 40.8723 187.778 41.5083 188.126C42.1563 188.462 42.6603 188.936 43.0203 189.548C43.3923 190.16 43.5783 190.874 43.5783 191.69V197H41.9223V191.708C41.9223 191.156 41.7963 190.682 41.5443 190.286C41.3043 189.878 40.9803 189.566 40.5723 189.35C40.1763 189.134 39.7503 189.026 39.2943 189.026C38.8383 189.026 38.4063 189.134 37.9983 189.35C37.6023 189.566 37.2783 189.878 37.0263 190.286C36.7863 190.682 36.6663 191.156 36.6663 191.708V197H35.0103ZM49.3396 197C48.5236 197 47.8816 196.766 47.4136 196.298C46.9576 195.83 46.7296 195.194 46.7296 194.39V185.516H48.3856V194.282C48.3856 194.678 48.4936 194.996 48.7096 195.236C48.9376 195.464 49.2496 195.578 49.6456 195.578H51.4996V197H49.3396ZM45.1456 189.242V187.82H51.5356V189.242H45.1456ZM57.9184 197C56.9104 197 56.0164 196.814 55.2364 196.442C54.4564 196.058 53.8444 195.524 53.4004 194.84C52.9684 194.144 52.7524 193.334 52.7524 192.41C52.7524 191.498 52.9384 190.682 53.3104 189.962C53.6824 189.23 54.1984 188.654 54.8584 188.234C55.5184 187.814 56.2864 187.604 57.1624 187.604C58.1104 187.604 58.8964 187.808 59.5204 188.216C60.1564 188.624 60.6304 189.176 60.9424 189.872C61.2544 190.556 61.4104 191.324 61.4104 192.176C61.4104 192.308 61.4044 192.446 61.3924 192.59C61.3924 192.734 61.3804 192.86 61.3564 192.968H54.5164C54.5764 193.532 54.7624 194.012 55.0744 194.408C55.3864 194.792 55.7824 195.086 56.2624 195.29C56.7544 195.482 57.2944 195.578 57.8824 195.578H60.2764V197H57.9184ZM54.4984 191.798H59.7364C59.7364 191.57 59.7124 191.33 59.6644 191.078C59.6164 190.814 59.5324 190.562 59.4124 190.322C59.2924 190.07 59.1304 189.848 58.9264 189.656C58.7344 189.452 58.4884 189.29 58.1884 189.17C57.9004 189.05 57.5584 188.99 57.1624 188.99C56.7424 188.99 56.3704 189.074 56.0464 189.242C55.7344 189.398 55.4644 189.614 55.2364 189.89C55.0084 190.154 54.8344 190.454 54.7144 190.79C54.5944 191.126 54.5224 191.462 54.4984 191.798ZM63.468 197V190.43C63.468 189.614 63.696 188.978 64.152 188.522C64.62 188.054 65.262 187.82 66.078 187.82H67.968V189.242H66.384C65.988 189.242 65.676 189.356 65.448 189.584C65.232 189.812 65.124 190.13 65.124 190.538V197H63.468ZM73.3146 197.216C72.4266 197.216 71.6586 197.006 71.0106 196.586C70.3626 196.154 69.8646 195.572 69.5166 194.84C69.1686 194.108 68.9946 193.298 68.9946 192.41C68.9946 191.51 69.1866 190.7 69.5706 189.98C69.9546 189.248 70.5066 188.672 71.2266 188.252C71.9466 187.82 72.8106 187.604 73.8186 187.604C74.7906 187.604 75.6246 187.814 76.3206 188.234C77.0166 188.654 77.5506 189.224 77.9226 189.944C78.3066 190.664 78.4986 191.468 78.4986 192.356V197H76.8246V195.128H76.7886C76.6086 195.476 76.3626 195.812 76.0506 196.136C75.7506 196.448 75.3726 196.706 74.9166 196.91C74.4606 197.114 73.9266 197.216 73.3146 197.216ZM73.7466 195.794C74.3466 195.794 74.8746 195.65 75.3306 195.362C75.7986 195.062 76.1586 194.654 76.4106 194.138C76.6746 193.61 76.8066 193.022 76.8066 192.374C76.8066 191.738 76.6806 191.168 76.4286 190.664C76.1886 190.16 75.8406 189.764 75.3846 189.476C74.9286 189.176 74.3946 189.026 73.7826 189.026C73.1346 189.026 72.5766 189.176 72.1086 189.476C71.6526 189.776 71.2986 190.184 71.0466 190.7C70.8066 191.204 70.6866 191.78 70.6866 192.428C70.6866 193.052 70.8066 193.622 71.0466 194.138C71.2866 194.642 71.6346 195.044 72.0906 195.344C72.5466 195.644 73.0986 195.794 73.7466 195.794ZM85.5813 197C84.6333 197 83.7873 196.796 83.0433 196.388C82.2993 195.98 81.7113 195.434 81.2793 194.75C80.8473 194.054 80.6313 193.274 80.6313 192.41C80.6313 191.546 80.8473 190.772 81.2793 190.088C81.7113 189.392 82.2993 188.84 83.0433 188.432C83.7873 188.024 84.6333 187.82 85.5813 187.82H86.6613V189.242H85.5273C84.9153 189.242 84.3633 189.386 83.8713 189.674C83.3913 189.95 83.0073 190.328 82.7193 190.808C82.4433 191.288 82.3053 191.822 82.3053 192.41C82.3053 192.998 82.4433 193.532 82.7193 194.012C83.0073 194.492 83.3913 194.876 83.8713 195.164C84.3633 195.44 84.9153 195.578 85.5273 195.578H86.6613V197H85.5813ZM91.6853 197C90.8693 197 90.2273 196.766 89.7593 196.298C89.3033 195.83 89.0753 195.194 89.0753 194.39V185.516H90.7313V194.282C90.7313 194.678 90.8393 194.996 91.0553 195.236C91.2833 195.464 91.5953 195.578 91.9913 195.578H93.8453V197H91.6853ZM87.4913 189.242V187.82H93.8813V189.242H87.4913ZM95.8833 197V187.82H97.5573V197H95.8833ZM96.7293 186.362C96.4293 186.362 96.1653 186.254 95.9373 186.038C95.7213 185.81 95.6133 185.546 95.6133 185.246C95.6133 184.946 95.7213 184.688 95.9373 184.472C96.1653 184.244 96.4293 184.13 96.7293 184.13C97.0293 184.13 97.2873 184.244 97.5033 184.472C97.7313 184.688 97.8453 184.946 97.8453 185.246C97.8453 185.546 97.7313 185.81 97.5033 186.038C97.2873 186.254 97.0293 186.362 96.7293 186.362ZM104.042 197.216C103.634 197.216 103.262 197.102 102.926 196.874C102.602 196.634 102.362 196.298 102.206 195.866L99.2184 187.82H101.036L103.7 195.254C103.748 195.374 103.802 195.458 103.862 195.506C103.922 195.554 103.988 195.578 104.06 195.578C104.144 195.578 104.21 195.554 104.258 195.506C104.318 195.458 104.372 195.374 104.42 195.254L107.102 187.82H108.884L105.896 195.866C105.728 196.298 105.482 196.634 105.158 196.874C104.834 197.102 104.462 197.216 104.042 197.216ZM114.872 197C113.864 197 112.97 196.814 112.19 196.442C111.41 196.058 110.798 195.524 110.354 194.84C109.922 194.144 109.706 193.334 109.706 192.41C109.706 191.498 109.892 190.682 110.264 189.962C110.636 189.23 111.152 188.654 111.812 188.234C112.472 187.814 113.24 187.604 114.116 187.604C115.064 187.604 115.85 187.808 116.474 188.216C117.11 188.624 117.584 189.176 117.896 189.872C118.208 190.556 118.364 191.324 118.364 192.176C118.364 192.308 118.358 192.446 118.346 192.59C118.346 192.734 118.334 192.86 118.31 192.968H111.47C111.53 193.532 111.716 194.012 112.028 194.408C112.34 194.792 112.736 195.086 113.216 195.29C113.708 195.482 114.248 195.578 114.836 195.578H117.23V197H114.872ZM111.452 191.798H116.69C116.69 191.57 116.666 191.33 116.618 191.078C116.57 190.814 116.486 190.562 116.366 190.322C116.246 190.07 116.084 189.848 115.88 189.656C115.688 189.452 115.442 189.29 115.142 189.17C114.854 189.05 114.512 188.99 114.116 188.99C113.696 188.99 113.324 189.074 113 189.242C112.688 189.398 112.418 189.614 112.19 189.89C111.962 190.154 111.788 190.454 111.668 190.79C111.548 191.126 111.476 191.462 111.452 191.798ZM125.113 197V195.578H129.505C129.793 195.578 130.039 195.518 130.243 195.398C130.459 195.266 130.621 195.098 130.729 194.894C130.837 194.69 130.891 194.474 130.891 194.246C130.891 194.03 130.843 193.832 130.747 193.652C130.651 193.46 130.501 193.31 130.297 193.202C130.105 193.082 129.871 193.022 129.595 193.022H127.741C127.153 193.022 126.637 192.926 126.193 192.734C125.761 192.53 125.419 192.236 125.167 191.852C124.927 191.468 124.807 191 124.807 190.448C124.807 189.98 124.921 189.548 125.149 189.152C125.377 188.756 125.695 188.438 126.103 188.198C126.511 187.946 126.979 187.82 127.507 187.82H131.737V189.242H127.669C127.297 189.242 127.003 189.356 126.787 189.584C126.571 189.812 126.463 190.082 126.463 190.394C126.463 190.694 126.571 190.958 126.787 191.186C127.015 191.402 127.333 191.51 127.741 191.51H129.505C130.165 191.51 130.717 191.618 131.161 191.834C131.617 192.038 131.959 192.338 132.187 192.734C132.427 193.13 132.547 193.616 132.547 194.192C132.547 194.684 132.427 195.146 132.187 195.578C131.947 195.998 131.611 196.34 131.179 196.604C130.759 196.868 130.267 197 129.703 197H125.113ZM137.599 197C136.783 197 136.141 196.766 135.673 196.298C135.217 195.83 134.989 195.194 134.989 194.39V185.516H136.645V194.282C136.645 194.678 136.753 194.996 136.969 195.236C137.197 195.464 137.509 195.578 137.905 195.578H139.759V197H137.599ZM133.405 189.242V187.82H139.795V189.242H133.405ZM145.836 197.216C144.9 197.216 144.072 197.006 143.352 196.586C142.632 196.154 142.062 195.578 141.642 194.858C141.222 194.126 141.012 193.31 141.012 192.41C141.012 191.51 141.222 190.7 141.642 189.98C142.062 189.248 142.632 188.672 143.352 188.252C144.072 187.82 144.9 187.604 145.836 187.604C146.772 187.604 147.6 187.82 148.32 188.252C149.052 188.672 149.622 189.242 150.03 189.962C150.45 190.682 150.66 191.498 150.66 192.41C150.66 193.31 150.45 194.126 150.03 194.858C149.622 195.578 149.052 196.154 148.32 196.586C147.6 197.006 146.772 197.216 145.836 197.216ZM145.836 195.794C146.472 195.794 147.024 195.644 147.492 195.344C147.96 195.044 148.326 194.642 148.59 194.138C148.854 193.622 148.986 193.046 148.986 192.41C148.986 191.774 148.854 191.204 148.59 190.7C148.326 190.184 147.96 189.776 147.492 189.476C147.024 189.176 146.472 189.026 145.836 189.026C145.212 189.026 144.66 189.176 144.18 189.476C143.712 189.776 143.346 190.184 143.082 190.7C142.818 191.204 142.686 191.774 142.686 192.41C142.686 193.046 142.818 193.622 143.082 194.138C143.346 194.642 143.712 195.044 144.18 195.344C144.66 195.644 145.212 195.794 145.836 195.794ZM152.73 197V190.43C152.73 189.614 152.958 188.978 153.414 188.522C153.882 188.054 154.524 187.82 155.34 187.82H157.23V189.242H155.646C155.25 189.242 154.938 189.356 154.71 189.584C154.494 189.812 154.386 190.13 154.386 190.538V197H152.73ZM162.234 200.654V197.144C161.562 197.048 160.962 196.826 160.434 196.478C159.918 196.118 159.51 195.656 159.21 195.092C158.91 194.516 158.76 193.862 158.76 193.13V187.82H160.434V193.112C160.434 193.664 160.554 194.144 160.794 194.552C161.034 194.948 161.352 195.254 161.748 195.47C162.156 195.686 162.588 195.794 163.044 195.794C163.512 195.794 163.944 195.686 164.34 195.47C164.748 195.254 165.072 194.948 165.312 194.552C165.564 194.144 165.69 193.664 165.69 193.112V187.82H167.346V193.13C167.346 193.862 167.196 194.51 166.896 195.074C166.608 195.638 166.2 196.1 165.672 196.46C165.156 196.808 164.562 197.036 163.89 197.144V200.654H162.234ZM173.107 197C172.291 197 171.649 196.766 171.181 196.298C170.725 195.83 170.497 195.194 170.497 194.39V185.516H172.153V194.282C172.153 194.678 172.261 194.996 172.477 195.236C172.705 195.464 173.017 195.578 173.413 195.578H175.267V197H173.107ZM168.913 189.242V187.82H175.303V189.242H168.913ZM181.686 197C180.678 197 179.784 196.814 179.004 196.442C178.224 196.058 177.612 195.524 177.168 194.84C176.736 194.144 176.52 193.334 176.52 192.41C176.52 191.498 176.706 190.682 177.078 189.962C177.45 189.23 177.966 188.654 178.626 188.234C179.286 187.814 180.054 187.604 180.93 187.604C181.878 187.604 182.664 187.808 183.288 188.216C183.924 188.624 184.398 189.176 184.71 189.872C185.022 190.556 185.178 191.324 185.178 192.176C185.178 192.308 185.172 192.446 185.16 192.59C185.16 192.734 185.148 192.86 185.124 192.968H178.284C178.344 193.532 178.53 194.012 178.842 194.408C179.154 194.792 179.55 195.086 180.03 195.29C180.522 195.482 181.062 195.578 181.65 195.578H184.044V197H181.686ZM178.266 191.798H183.504C183.504 191.57 183.48 191.33 183.432 191.078C183.384 190.814 183.3 190.562 183.18 190.322C183.06 190.07 182.898 189.848 182.694 189.656C182.502 189.452 182.256 189.29 181.956 189.17C181.668 189.05 181.326 188.99 180.93 188.99C180.51 188.99 180.138 189.074 179.814 189.242C179.502 189.398 179.232 189.614 179.004 189.89C178.776 190.154 178.602 190.454 178.482 190.79C178.362 191.126 178.29 191.462 178.266 191.798ZM187.29 197V183.86H188.946V197H187.29ZM191.579 197V183.86H193.235V197H191.579ZM195.868 197V187.82H197.542V197H195.868ZM196.714 186.362C196.414 186.362 196.15 186.254 195.922 186.038C195.706 185.81 195.598 185.546 195.598 185.246C195.598 184.946 195.706 184.688 195.922 184.472C196.15 184.244 196.414 184.13 196.714 184.13C197.014 184.13 197.272 184.244 197.488 184.472C197.716 184.688 197.83 184.946 197.83 185.246C197.83 185.546 197.716 185.81 197.488 186.038C197.272 186.254 197.014 186.362 196.714 186.362ZM200.157 197V191.69C200.157 190.874 200.337 190.16 200.697 189.548C201.069 188.936 201.579 188.462 202.227 188.126C202.875 187.778 203.613 187.604 204.441 187.604C205.281 187.604 206.019 187.778 206.655 188.126C207.303 188.462 207.807 188.936 208.167 189.548C208.539 190.16 208.725 190.874 208.725 191.69V197H207.069V191.708C207.069 191.156 206.943 190.682 206.691 190.286C206.451 189.878 206.127 189.566 205.719 189.35C205.323 189.134 204.897 189.026 204.441 189.026C203.985 189.026 203.553 189.134 203.145 189.35C202.749 189.566 202.425 189.878 202.173 190.286C201.933 190.682 201.813 191.156 201.813 191.708V197H200.157ZM212.74 200.654V199.232H217.24C217.684 199.232 218.026 199.1 218.266 198.836C218.518 198.572 218.644 198.224 218.644 197.792V195.272H218.608C218.38 195.62 218.104 195.932 217.78 196.208C217.456 196.484 217.084 196.706 216.664 196.874C216.244 197.03 215.77 197.108 215.242 197.108C214.378 197.108 213.616 196.91 212.956 196.514C212.296 196.106 211.78 195.548 211.408 194.84C211.036 194.12 210.85 193.298 210.85 192.374C210.85 191.474 211.036 190.664 211.408 189.944C211.78 189.224 212.314 188.654 213.01 188.234C213.718 187.814 214.57 187.604 215.566 187.604C216.526 187.604 217.36 187.808 218.068 188.216C218.776 188.624 219.322 189.194 219.706 189.926C220.102 190.646 220.3 191.492 220.3 192.464V197.9C220.3 198.74 220.054 199.406 219.562 199.898C219.07 200.402 218.398 200.654 217.546 200.654H212.74ZM215.548 195.686C216.16 195.686 216.694 195.542 217.15 195.254C217.618 194.966 217.978 194.576 218.23 194.084C218.494 193.58 218.626 193.016 218.626 192.392C218.626 191.756 218.5 191.186 218.248 190.682C217.996 190.178 217.642 189.782 217.186 189.494C216.73 189.194 216.184 189.044 215.548 189.044C214.924 189.044 214.384 189.194 213.928 189.494C213.484 189.782 213.136 190.184 212.884 190.7C212.644 191.204 212.524 191.774 212.524 192.41C212.524 193.01 212.644 193.562 212.884 194.066C213.136 194.558 213.484 194.954 213.928 195.254C214.384 195.542 214.924 195.686 215.548 195.686ZM230.763 197C229.947 197 229.305 196.766 228.837 196.298C228.381 195.83 228.153 195.194 228.153 194.39V185.516H229.809V194.282C229.809 194.678 229.917 194.996 230.133 195.236C230.361 195.464 230.673 195.578 231.069 195.578H232.923V197H230.763ZM226.569 189.242V187.82H232.959V189.242H226.569ZM239 197.216C238.064 197.216 237.236 197.006 236.516 196.586C235.796 196.154 235.226 195.578 234.806 194.858C234.386 194.126 234.176 193.31 234.176 192.41C234.176 191.51 234.386 190.7 234.806 189.98C235.226 189.248 235.796 188.672 236.516 188.252C237.236 187.82 238.064 187.604 239 187.604C239.936 187.604 240.764 187.82 241.484 188.252C242.216 188.672 242.786 189.242 243.194 189.962C243.614 190.682 243.824 191.498 243.824 192.41C243.824 193.31 243.614 194.126 243.194 194.858C242.786 195.578 242.216 196.154 241.484 196.586C240.764 197.006 239.936 197.216 239 197.216ZM239 195.794C239.636 195.794 240.188 195.644 240.656 195.344C241.124 195.044 241.49 194.642 241.754 194.138C242.018 193.622 242.15 193.046 242.15 192.41C242.15 191.774 242.018 191.204 241.754 190.7C241.49 190.184 241.124 189.776 240.656 189.476C240.188 189.176 239.636 189.026 239 189.026C238.376 189.026 237.824 189.176 237.344 189.476C236.876 189.776 236.51 190.184 236.246 190.7C235.982 191.204 235.85 191.774 235.85 192.41C235.85 193.046 235.982 193.622 236.246 194.138C236.51 194.642 236.876 195.044 237.344 195.344C237.824 195.644 238.376 195.794 239 195.794ZM250.268 197.216C249.332 197.216 248.504 197.006 247.784 196.586C247.064 196.154 246.494 195.578 246.074 194.858C245.654 194.126 245.444 193.31 245.444 192.41C245.444 191.51 245.654 190.7 246.074 189.98C246.494 189.248 247.064 188.672 247.784 188.252C248.504 187.82 249.332 187.604 250.268 187.604C251.204 187.604 252.032 187.82 252.752 188.252C253.484 188.672 254.054 189.242 254.462 189.962C254.882 190.682 255.092 191.498 255.092 192.41C255.092 193.31 254.882 194.126 254.462 194.858C254.054 195.578 253.484 196.154 252.752 196.586C252.032 197.006 251.204 197.216 250.268 197.216ZM250.268 195.794C250.904 195.794 251.456 195.644 251.924 195.344C252.392 195.044 252.758 194.642 253.022 194.138C253.286 193.622 253.418 193.046 253.418 192.41C253.418 191.774 253.286 191.204 253.022 190.7C252.758 190.184 252.392 189.776 251.924 189.476C251.456 189.176 250.904 189.026 250.268 189.026C249.644 189.026 249.092 189.176 248.612 189.476C248.144 189.776 247.778 190.184 247.514 190.7C247.25 191.204 247.118 191.774 247.118 192.41C247.118 193.046 247.25 193.622 247.514 194.138C247.778 194.642 248.144 195.044 248.612 195.344C249.092 195.644 249.644 195.794 250.268 195.794ZM257.215 197V183.86H258.871V197H257.215Z" fill="white"/>
<path d="M16.5114 103V54H37.1614C40.2414 54 43.0414 54.7 45.5614 56.1C48.0814 57.4533 50.0881 59.3667 51.5814 61.84C53.0747 64.3133 53.8214 67.2067 53.8214 70.52C53.8214 73.6933 53.0747 76.54 51.5814 79.06C50.1347 81.5333 48.1514 83.47 45.6314 84.87C43.1114 86.27 40.2414 86.97 37.0214 86.97H23.2314V103H16.5114ZM23.2314 81.02H36.2514C38.2581 81.02 40.0781 80.6233 41.7114 79.83C43.3914 78.99 44.6981 77.7767 45.6314 76.19C46.6114 74.6033 47.1014 72.7133 47.1014 70.52C47.1014 68.28 46.6114 66.39 45.6314 64.85C44.6514 63.2633 43.3447 62.05 41.7114 61.21C40.0781 60.37 38.2814 59.95 36.3214 59.95H23.2314V81.02ZM61.902 103V54H68.622V75.07H94.452V54H101.172V103H94.452V81.02H68.622V103H61.902ZM110.124 103V97.05H119.574V59.95H110.124V54H135.674V59.95H126.294V97.05H135.674V103H110.124ZM157.077 103C154.417 103 152.107 102.44 150.147 101.32C148.234 100.153 146.74 98.59 145.667 96.63C144.64 94.6233 144.127 92.3833 144.127 89.91V54H150.847V90.75C150.847 92.57 151.407 94.0867 152.527 95.3C153.694 96.4667 155.21 97.05 157.077 97.05H170.237V103H157.077ZM190.094 103C187.434 103 185.124 102.44 183.164 101.32C181.251 100.153 179.758 98.59 178.684 96.63C177.658 94.6233 177.144 92.3833 177.144 89.91V54H183.864V90.75C183.864 92.57 184.424 94.0867 185.544 95.3C186.711 96.4667 188.228 97.05 190.094 97.05H203.254V103H190.094ZM226.472 103V88.79C223.065 88.3233 220.172 87.2267 217.792 85.5C215.412 83.7267 213.592 81.44 212.332 78.64C211.072 75.84 210.442 72.69 210.442 69.19V54H217.162V69.75C217.162 72.1767 217.652 74.4167 218.632 76.47C219.659 78.4767 221.105 80.11 222.972 81.37C224.885 82.5833 227.195 83.19 229.902 83.19C232.609 83.19 234.895 82.5833 236.762 81.37C238.675 80.11 240.122 78.4767 241.102 76.47C242.082 74.4167 242.572 72.1767 242.572 69.75V54H249.292V69.19C249.292 72.69 248.662 75.84 247.402 78.64C246.142 81.44 244.299 83.7267 241.872 85.5C239.492 87.2733 236.599 88.37 233.192 88.79V103H226.472ZM25.5187 159.84C23.8387 159.84 22.3687 159.42 21.1087 158.58C19.8487 157.693 18.8454 156.27 18.0987 154.31L2.06871 110H9.41871L23.6287 151.58C23.862 152.187 24.1187 152.677 24.3987 153.05C24.6787 153.423 25.052 153.61 25.5187 153.61C26.032 153.61 26.4287 153.423 26.7087 153.05C26.9887 152.677 27.2454 152.187 27.4787 151.58L41.9687 110H49.0387L33.0087 154.31C32.3087 156.223 31.3054 157.623 29.9987 158.51C28.7387 159.397 27.2454 159.84 25.5187 159.84ZM77.585 159.91C73.7117 159.91 70.2117 159.257 67.085 157.95C63.9584 156.597 61.275 154.753 59.035 152.42C56.8417 150.087 55.1384 147.38 53.925 144.3C52.7117 141.22 52.105 137.93 52.105 134.43C52.105 130.977 52.7117 127.71 53.925 124.63C55.1384 121.55 56.8417 118.843 59.035 116.51C61.275 114.177 63.9584 112.357 67.085 111.05C70.2117 109.743 73.7117 109.09 77.585 109.09C81.4584 109.09 84.9584 109.743 88.085 111.05C91.2117 112.357 93.8717 114.177 96.065 116.51C98.305 118.843 100.032 121.55 101.245 124.63C102.458 127.71 103.065 131 103.065 134.5C103.065 137.953 102.458 141.22 101.245 144.3C100.032 147.38 98.305 150.087 96.065 152.42C93.8717 154.753 91.2117 156.597 88.085 157.95C84.9584 159.257 81.4584 159.91 77.585 159.91ZM77.585 153.96C80.245 153.96 82.7184 153.47 85.005 152.49C87.2917 151.51 89.275 150.133 90.955 148.36C92.6817 146.587 94.0117 144.533 94.945 142.2C95.8784 139.82 96.345 137.23 96.345 134.43C96.345 131.677 95.8784 129.11 94.945 126.73C94.0117 124.35 92.705 122.297 91.025 120.57C89.345 118.797 87.3384 117.443 85.005 116.51C82.7184 115.53 80.245 115.04 77.585 115.04C74.8784 115.04 72.3817 115.53 70.095 116.51C67.8084 117.443 65.825 118.797 64.145 120.57C62.465 122.297 61.1584 124.35 60.225 126.73C59.2917 129.11 58.825 131.7 58.825 134.5C58.825 137.253 59.2917 139.82 60.225 142.2C61.1584 144.533 62.465 146.587 64.145 148.36C65.825 150.133 67.8084 151.51 70.095 152.49C72.3817 153.47 74.8784 153.96 77.585 153.96ZM109.612 159V153.05H119.062V115.95H109.612V110H135.162V115.95H125.782V153.05H135.162V159H109.612ZM165.944 159C162.211 158.953 158.804 158.3 155.724 157.04C152.644 155.733 149.984 153.96 147.744 151.72C145.551 149.48 143.848 146.89 142.634 143.95C141.468 141.01 140.884 137.86 140.884 134.5C140.884 131.14 141.468 127.99 142.634 125.05C143.848 122.11 145.551 119.52 147.744 117.28C149.984 115.04 152.644 113.29 155.724 112.03C158.804 110.723 162.211 110.047 165.944 110H172.244V115.95H166.154C163.494 115.95 161.044 116.44 158.804 117.42C156.564 118.353 154.604 119.66 152.924 121.34C151.291 122.973 150.008 124.91 149.074 127.15C148.141 129.39 147.674 131.84 147.674 134.5C147.674 137.113 148.141 139.563 149.074 141.85C150.008 144.09 151.291 146.05 152.924 147.73C154.604 149.363 156.564 150.647 158.804 151.58C161.044 152.513 163.494 153.003 166.154 153.05H172.244V159H165.944ZM191.891 159C189.185 159 186.781 158.37 184.681 157.11C182.628 155.803 181.018 154.1 179.851 152C178.685 149.9 178.101 147.613 178.101 145.14C178.101 142.9 178.615 140.8 179.641 138.84C180.715 136.88 182.255 135.34 184.261 134.22C182.301 132.96 180.808 131.397 179.781 129.53C178.755 127.663 178.241 125.703 178.241 123.65C178.241 121.13 178.825 118.843 179.991 116.79C181.205 114.737 182.838 113.103 184.891 111.89C186.945 110.63 189.208 110 191.681 110H211.071V115.95H192.451C191.005 115.95 189.721 116.3 188.601 117C187.481 117.7 186.595 118.633 185.941 119.8C185.288 120.92 184.961 122.203 184.961 123.65C184.961 125.003 185.288 126.24 185.941 127.36C186.641 128.48 187.575 129.39 188.741 130.09C189.908 130.743 191.191 131.07 192.591 131.07H208.481V137.02H193.081C191.355 137.02 189.861 137.417 188.601 138.21C187.388 138.957 186.431 139.96 185.731 141.22C185.078 142.433 184.751 143.74 184.751 145.14C184.751 146.54 185.078 147.847 185.731 149.06C186.385 150.273 187.318 151.253 188.531 152C189.745 152.7 191.168 153.05 192.801 153.05H211.071V159H191.891ZM219.295 159V153.05H240.505C242.138 153.05 243.538 152.677 244.705 151.93C245.871 151.137 246.781 150.133 247.435 148.92C248.088 147.707 248.415 146.423 248.415 145.07C248.415 143.67 248.088 142.387 247.435 141.22C246.828 140.007 245.941 139.05 244.775 138.35C243.655 137.603 242.278 137.23 240.645 137.23H231.405C228.651 137.23 226.225 136.67 224.125 135.55C222.025 134.383 220.368 132.797 219.155 130.79C217.988 128.737 217.405 126.427 217.405 123.86C217.405 121.247 217.965 118.89 219.085 116.79C220.251 114.69 221.861 113.033 223.915 111.82C226.015 110.607 228.418 110 231.125 110H251.915V115.95H231.755C230.215 115.95 228.861 116.323 227.695 117.07C226.528 117.77 225.641 118.703 225.035 119.87C224.428 120.99 224.125 122.203 224.125 123.51C224.125 124.77 224.405 125.983 224.965 127.15C225.571 128.27 226.435 129.18 227.555 129.88C228.721 130.58 230.051 130.93 231.545 130.93H240.995C243.935 130.93 246.455 131.513 248.555 132.68C250.655 133.847 252.265 135.433 253.385 137.44C254.505 139.447 255.065 141.733 255.065 144.3C255.065 147.147 254.481 149.69 253.315 151.93C252.195 154.123 250.585 155.85 248.485 157.11C246.385 158.37 243.981 159 241.275 159H219.295Z" fill="#FFF981"/>
<path d="M18.5114 103V54H39.1614C42.2414 54 45.0414 54.7 47.5614 56.1C50.0814 57.4533 52.0881 59.3667 53.5814 61.84C55.0747 64.3133 55.8214 67.2067 55.8214 70.52C55.8214 73.6933 55.0747 76.54 53.5814 79.06C52.1347 81.5333 50.1514 83.47 47.6314 84.87C45.1114 86.27 42.2414 86.97 39.0214 86.97H25.2314V103H18.5114ZM25.2314 81.02H38.2514C40.2581 81.02 42.0781 80.6233 43.7114 79.83C45.3914 78.99 46.6981 77.7767 47.6314 76.19C48.6114 74.6033 49.1014 72.7133 49.1014 70.52C49.1014 68.28 48.6114 66.39 47.6314 64.85C46.6514 63.2633 45.3447 62.05 43.7114 61.21C42.0781 60.37 40.2814 59.95 38.3214 59.95H25.2314V81.02ZM63.902 103V54H70.622V75.07H96.452V54H103.172V103H96.452V81.02H70.622V103H63.902ZM112.124 103V97.05H121.574V59.95H112.124V54H137.674V59.95H128.294V97.05H137.674V103H112.124ZM159.077 103C156.417 103 154.107 102.44 152.147 101.32C150.234 100.153 148.74 98.59 147.667 96.63C146.64 94.6233 146.127 92.3833 146.127 89.91V54H152.847V90.75C152.847 92.57 153.407 94.0867 154.527 95.3C155.694 96.4667 157.21 97.05 159.077 97.05H172.237V103H159.077ZM192.094 103C189.434 103 187.124 102.44 185.164 101.32C183.251 100.153 181.758 98.59 180.684 96.63C179.658 94.6233 179.144 92.3833 179.144 89.91V54H185.864V90.75C185.864 92.57 186.424 94.0867 187.544 95.3C188.711 96.4667 190.228 97.05 192.094 97.05H205.254V103H192.094ZM228.472 103V88.79C225.065 88.3233 222.172 87.2267 219.792 85.5C217.412 83.7267 215.592 81.44 214.332 78.64C213.072 75.84 212.442 72.69 212.442 69.19V54H219.162V69.75C219.162 72.1767 219.652 74.4167 220.632 76.47C221.659 78.4767 223.105 80.11 224.972 81.37C226.885 82.5833 229.195 83.19 231.902 83.19C234.609 83.19 236.895 82.5833 238.762 81.37C240.675 80.11 242.122 78.4767 243.102 76.47C244.082 74.4167 244.572 72.1767 244.572 69.75V54H251.292V69.19C251.292 72.69 250.662 75.84 249.402 78.64C248.142 81.44 246.299 83.7267 243.872 85.5C241.492 87.2733 238.599 88.37 235.192 88.79V103H228.472ZM27.5187 159.84C25.8387 159.84 24.3687 159.42 23.1087 158.58C21.8487 157.693 20.8454 156.27 20.0987 154.31L4.06871 110H11.4187L25.6287 151.58C25.862 152.187 26.1187 152.677 26.3987 153.05C26.6787 153.423 27.052 153.61 27.5187 153.61C28.032 153.61 28.4287 153.423 28.7087 153.05C28.9887 152.677 29.2454 152.187 29.4787 151.58L43.9687 110H51.0387L35.0087 154.31C34.3087 156.223 33.3054 157.623 31.9987 158.51C30.7387 159.397 29.2454 159.84 27.5187 159.84ZM79.585 159.91C75.7117 159.91 72.2117 159.257 69.085 157.95C65.9584 156.597 63.275 154.753 61.035 152.42C58.8417 150.087 57.1384 147.38 55.925 144.3C54.7117 141.22 54.105 137.93 54.105 134.43C54.105 130.977 54.7117 127.71 55.925 124.63C57.1384 121.55 58.8417 118.843 61.035 116.51C63.275 114.177 65.9584 112.357 69.085 111.05C72.2117 109.743 75.7117 109.09 79.585 109.09C83.4584 109.09 86.9584 109.743 90.085 111.05C93.2117 112.357 95.8717 114.177 98.065 116.51C100.305 118.843 102.032 121.55 103.245 124.63C104.458 127.71 105.065 131 105.065 134.5C105.065 137.953 104.458 141.22 103.245 144.3C102.032 147.38 100.305 150.087 98.065 152.42C95.8717 154.753 93.2117 156.597 90.085 157.95C86.9584 159.257 83.4584 159.91 79.585 159.91ZM79.585 153.96C82.245 153.96 84.7184 153.47 87.005 152.49C89.2917 151.51 91.275 150.133 92.955 148.36C94.6817 146.587 96.0117 144.533 96.945 142.2C97.8784 139.82 98.345 137.23 98.345 134.43C98.345 131.677 97.8784 129.11 96.945 126.73C96.0117 124.35 94.705 122.297 93.025 120.57C91.345 118.797 89.3384 117.443 87.005 116.51C84.7184 115.53 82.245 115.04 79.585 115.04C76.8784 115.04 74.3817 115.53 72.095 116.51C69.8084 117.443 67.825 118.797 66.145 120.57C64.465 122.297 63.1584 124.35 62.225 126.73C61.2917 129.11 60.825 131.7 60.825 134.5C60.825 137.253 61.2917 139.82 62.225 142.2C63.1584 144.533 64.465 146.587 66.145 148.36C67.825 150.133 69.8084 151.51 72.095 152.49C74.3817 153.47 76.8784 153.96 79.585 153.96ZM111.612 159V153.05H121.062V115.95H111.612V110H137.162V115.95H127.782V153.05H137.162V159H111.612ZM167.944 159C164.211 158.953 160.804 158.3 157.724 157.04C154.644 155.733 151.984 153.96 149.744 151.72C147.551 149.48 145.848 146.89 144.634 143.95C143.468 141.01 142.884 137.86 142.884 134.5C142.884 131.14 143.468 127.99 144.634 125.05C145.848 122.11 147.551 119.52 149.744 117.28C151.984 115.04 154.644 113.29 157.724 112.03C160.804 110.723 164.211 110.047 167.944 110H174.244V115.95H168.154C165.494 115.95 163.044 116.44 160.804 117.42C158.564 118.353 156.604 119.66 154.924 121.34C153.291 122.973 152.008 124.91 151.074 127.15C150.141 129.39 149.674 131.84 149.674 134.5C149.674 137.113 150.141 139.563 151.074 141.85C152.008 144.09 153.291 146.05 154.924 147.73C156.604 149.363 158.564 150.647 160.804 151.58C163.044 152.513 165.494 153.003 168.154 153.05H174.244V159H167.944ZM193.891 159C191.185 159 188.781 158.37 186.681 157.11C184.628 155.803 183.018 154.1 181.851 152C180.685 149.9 180.101 147.613 180.101 145.14C180.101 142.9 180.615 140.8 181.641 138.84C182.715 136.88 184.255 135.34 186.261 134.22C184.301 132.96 182.808 131.397 181.781 129.53C180.755 127.663 180.241 125.703 180.241 123.65C180.241 121.13 180.825 118.843 181.991 116.79C183.205 114.737 184.838 113.103 186.891 111.89C188.945 110.63 191.208 110 193.681 110H213.071V115.95H194.451C193.005 115.95 191.721 116.3 190.601 117C189.481 117.7 188.595 118.633 187.941 119.8C187.288 120.92 186.961 122.203 186.961 123.65C186.961 125.003 187.288 126.24 187.941 127.36C188.641 128.48 189.575 129.39 190.741 130.09C191.908 130.743 193.191 131.07 194.591 131.07H210.481V137.02H195.081C193.355 137.02 191.861 137.417 190.601 138.21C189.388 138.957 188.431 139.96 187.731 141.22C187.078 142.433 186.751 143.74 186.751 145.14C186.751 146.54 187.078 147.847 187.731 149.06C188.385 150.273 189.318 151.253 190.531 152C191.745 152.7 193.168 153.05 194.801 153.05H213.071V159H193.891ZM221.295 159V153.05H242.505C244.138 153.05 245.538 152.677 246.705 151.93C247.871 151.137 248.781 150.133 249.435 148.92C250.088 147.707 250.415 146.423 250.415 145.07C250.415 143.67 250.088 142.387 249.435 141.22C248.828 140.007 247.941 139.05 246.775 138.35C245.655 137.603 244.278 137.23 242.645 137.23H233.405C230.651 137.23 228.225 136.67 226.125 135.55C224.025 134.383 222.368 132.797 221.155 130.79C219.988 128.737 219.405 126.427 219.405 123.86C219.405 121.247 219.965 118.89 221.085 116.79C222.251 114.69 223.861 113.033 225.915 111.82C228.015 110.607 230.418 110 233.125 110H253.915V115.95H233.755C232.215 115.95 230.861 116.323 229.695 117.07C228.528 117.77 227.641 118.703 227.035 119.87C226.428 120.99 226.125 122.203 226.125 123.51C226.125 124.77 226.405 125.983 226.965 127.15C227.571 128.27 228.435 129.18 229.555 129.88C230.721 130.58 232.051 130.93 233.545 130.93H242.995C245.935 130.93 248.455 131.513 250.555 132.68C252.655 133.847 254.265 135.433 255.385 137.44C256.505 139.447 257.065 141.733 257.065 144.3C257.065 147.147 256.481 149.69 255.315 151.93C254.195 154.123 252.585 155.85 250.485 157.11C248.385 158.37 245.981 159 243.275 159H221.295Z" fill="#51988B"/>
</svg>
