<svg width="78" height="84" viewBox="0 0 78 84" fill="none" xmlns="http://www.w3.org/2000/svg">
<circle cx="39" cy="39" r="38" stroke="#FFF981" stroke-width="2"/>
<circle cx="40" cy="38" r="38" fill="#51988B"/>
<g filter="url(#filter0_d_225_646)">
<path d="M13.0791 46.096C15.2991 46.096 16.3311 44.992 16.3311 43.708C16.3311 40.624 11.2431 41.908 11.2431 39.856C11.2431 39.124 11.8551 38.524 13.2831 38.524C14.0271 38.524 14.8551 38.74 15.5871 39.208L15.9831 38.248C15.2871 37.768 14.2671 37.504 13.2831 37.504C11.0751 37.504 10.0671 38.608 10.0671 39.904C10.0671 43.024 15.1551 41.728 15.1551 43.78C15.1551 44.512 14.5311 45.076 13.0791 45.076C11.9991 45.076 10.9311 44.668 10.3071 44.104L9.86309 45.04C10.5351 45.664 11.7951 46.096 13.0791 46.096ZM21.5642 46.096C23.7842 46.096 25.1162 44.812 25.1162 42.376V37.6H23.9522V42.328C23.9522 44.188 23.0882 45.028 21.5762 45.028C20.0642 45.028 19.2122 44.188 19.2122 42.328V37.6H18.0122V42.376C18.0122 44.812 19.3562 46.096 21.5642 46.096ZM33.2284 41.644C33.8884 41.32 34.3564 40.684 34.3564 39.772C34.3564 38.416 33.2764 37.6 31.3444 37.6H27.5764V46H31.5844C33.7084 46 34.8004 45.172 34.8004 43.732C34.8004 42.616 34.1764 41.908 33.2284 41.644ZM31.2364 38.572C32.4604 38.572 33.1564 39.028 33.1564 39.916C33.1564 40.804 32.4604 41.26 31.2364 41.26H28.7764V38.572H31.2364ZM31.5364 45.028H28.7764V42.232H31.5364C32.8684 42.232 33.5884 42.664 33.5884 43.636C33.5884 44.608 32.8684 45.028 31.5364 45.028ZM45.5984 46L45.5864 37.6H44.6024L41.1464 43.504L37.6424 37.6H36.6584V46H37.8104V39.916L40.8464 44.98H41.3984L44.4344 39.88L44.4464 46H45.5984ZM48.1194 46H49.3194V37.6H48.1194V46ZM53.5022 46H54.6902V38.644H57.5702V37.6H50.6222V38.644H53.5022V46ZM68.3758 46H69.6358L65.8198 37.6H64.6318L60.8278 46H62.0638L62.9878 43.9H67.4518L68.3758 46ZM63.4078 42.94L65.2198 38.824L67.0318 42.94H63.4078ZM22.8525 58.096C25.0725 58.096 26.1045 56.992 26.1045 55.708C26.1045 52.624 21.0165 53.908 21.0165 51.856C21.0165 51.124 21.6285 50.524 23.0565 50.524C23.8005 50.524 24.6285 50.74 25.3605 51.208L25.7565 50.248C25.0605 49.768 24.0405 49.504 23.0565 49.504C20.8485 49.504 19.8405 50.608 19.8405 51.904C19.8405 55.024 24.9285 53.728 24.9285 55.78C24.9285 56.512 24.3045 57.076 22.8525 57.076C21.7725 57.076 20.7045 56.668 20.0805 56.104L19.6365 57.04C20.3085 57.664 21.5685 58.096 22.8525 58.096ZM29.4085 58H30.5965V50.644H33.4765V49.6H26.5285V50.644H29.4085V58ZM38.4583 58.096C41.0143 58.096 42.9103 56.272 42.9103 53.8C42.9103 51.328 41.0143 49.504 38.4583 49.504C35.8783 49.504 33.9823 51.34 33.9823 53.8C33.9823 56.26 35.8783 58.096 38.4583 58.096ZM38.4583 57.028C36.5742 57.028 35.1823 55.66 35.1823 53.8C35.1823 51.94 36.5742 50.572 38.4583 50.572C40.3183 50.572 41.7103 51.94 41.7103 53.8C41.7103 55.66 40.3183 57.028 38.4583 57.028ZM51.6684 58L49.6764 55.18C50.8524 54.76 51.5244 53.824 51.5244 52.528C51.5244 50.704 50.2044 49.6 48.0204 49.6H44.7444V58H45.9444V55.444H48.0204C48.2004 55.444 48.3804 55.432 48.5484 55.42L50.3604 58H51.6684ZM47.9844 54.424H45.9444V50.644H47.9844C49.5204 50.644 50.3244 51.328 50.3244 52.528C50.3244 53.728 49.5204 54.424 47.9844 54.424ZM59.8979 49.6H58.7099L56.0099 54.028L53.3219 49.6H52.0379L55.3739 55.072V58H56.5619V55.096L59.8979 49.6Z" fill="white"/>
</g>
<line x1="40" y1="15" x2="40" y2="29" stroke="white" stroke-width="2" stroke-linecap="round"/>
<line x1="47" y1="22" x2="33" y2="22" stroke="white" stroke-width="2" stroke-linecap="round"/>
<defs>
<filter id="filter0_d_225_646" x="9.8631" y="37.504" width="61.7728" height="22.592" filterUnits="userSpaceOnUse" color-interpolation-filters="sRGB">
<feFlood flood-opacity="0" result="BackgroundImageFix"/>
<feColorMatrix in="SourceAlpha" type="matrix" values="0 0 0 0 0 0 0 0 0 0 0 0 0 0 0 0 0 0 127 0" result="hardAlpha"/>
<feOffset dx="1" dy="1"/>
<feGaussianBlur stdDeviation="0.5"/>
<feComposite in2="hardAlpha" operator="out"/>
<feColorMatrix type="matrix" values="0 0 0 0 0.340243 0 0 0 0 0.341667 0 0 0 0 0.270486 0 0 0 0.56 0"/>
<feBlend mode="normal" in2="BackgroundImageFix" result="effect1_dropShadow_225_646"/>
<feBlend mode="normal" in="SourceGraphic" in2="effect1_dropShadow_225_646" result="shape"/>
</filter>
</defs>
</svg>
