<svg width="215" height="212" viewBox="0 0 215 212" fill="none" xmlns="http://www.w3.org/2000/svg">
<circle cx="101.975" cy="110.025" r="101.475" fill="#FFF981" stroke="white"/>
<circle cx="112.709" cy="101.975" r="101.975" fill="#51988B"/>
<g filter="url(#filter0_d_316_423)">
<path d="M75.0205 57.8507L68.0725 78.4427L61.1245 57.8507H57.8125L50.7205 78.3347L43.9165 57.8507H40.2085L48.6325 83.0507H52.4845L59.3605 62.9267L66.2365 83.0507H70.0165L78.4405 57.8507H75.0205ZM100.916 57.8507V68.6867H86.4443V57.8507H82.8443V83.0507H86.4443V71.8187H100.916V83.0507H104.516V57.8507H100.916ZM130.887 83.0507H134.667L123.219 57.8507H119.655L108.243 83.0507H111.951L114.723 76.7507H128.115L130.887 83.0507ZM115.983 73.8707L121.419 61.5227L126.855 73.8707H115.983ZM142.165 83.0507H145.729V60.9827H154.369V57.8507H133.525V60.9827H142.165V83.0507ZM159.634 56.1227C158.266 56.1227 157.222 57.1307 157.222 58.5707C157.222 59.6507 157.834 60.4787 158.734 60.8027L157.402 66.1667H159.67L161.398 61.1267C161.866 59.7947 161.974 59.2547 161.974 58.5707C161.974 57.1667 161.002 56.1227 159.634 56.1227ZM175.126 83.3387C181.786 83.3387 184.882 80.0267 184.882 76.1747C184.882 66.9227 169.618 70.7747 169.618 64.6187C169.618 62.4227 171.454 60.6227 175.738 60.6227C177.97 60.6227 180.454 61.2707 182.65 62.6747L183.838 59.7947C181.75 58.3547 178.69 57.5627 175.738 57.5627C169.114 57.5627 166.09 60.8747 166.09 64.7627C166.09 74.1227 181.354 70.2347 181.354 76.3907C181.354 78.5867 179.482 80.2787 175.126 80.2787C171.886 80.2787 168.682 79.0547 166.81 77.3627L165.478 80.1707C167.494 82.0427 171.274 83.3387 175.126 83.3387ZM82.6019 93.8507H79.0379L70.9379 107.135L62.8739 93.8507H59.0219L69.0299 110.267V119.051H72.5939V110.339L82.6019 93.8507ZM96.5407 119.339C104.209 119.339 109.897 113.867 109.897 106.451C109.897 99.0347 104.209 93.5627 96.5407 93.5627C88.8007 93.5627 83.1127 99.0707 83.1127 106.451C83.1127 113.831 88.8007 119.339 96.5407 119.339ZM96.5407 116.135C90.8887 116.135 86.7127 112.031 86.7127 106.451C86.7127 100.871 90.8887 96.7667 96.5407 96.7667C102.121 96.7667 106.297 100.871 106.297 106.451C106.297 112.031 102.121 116.135 96.5407 116.135ZM125.839 119.339C132.499 119.339 136.495 115.487 136.495 108.179V93.8507H133.003V108.035C133.003 113.615 130.411 116.135 125.875 116.135C121.339 116.135 118.783 113.615 118.783 108.035V93.8507H115.183V108.179C115.183 115.487 119.215 119.339 125.839 119.339ZM164.648 119.051L158.672 110.591C162.2 109.331 164.216 106.523 164.216 102.635C164.216 97.1627 160.256 93.8507 153.704 93.8507H143.876V119.051H147.476V111.383H153.704C154.244 111.383 154.784 111.347 155.288 111.311L160.724 119.051H164.648ZM153.596 108.323H147.476V96.9827H153.596C158.204 96.9827 160.616 99.0347 160.616 102.635C160.616 106.235 158.204 108.323 153.596 108.323ZM52.4481 155.339C59.1081 155.339 62.2041 152.027 62.2041 148.175C62.2041 138.923 46.9401 142.775 46.9401 136.619C46.9401 134.423 48.7761 132.623 53.0601 132.623C55.2921 132.623 57.7761 133.271 59.9721 134.675L61.1601 131.795C59.0721 130.355 56.0121 129.563 53.0601 129.563C46.4361 129.563 43.4121 132.875 43.4121 136.763C43.4121 146.123 58.6761 142.235 58.6761 148.391C58.6761 150.587 56.8041 152.279 52.4481 152.279C49.2081 152.279 46.0041 151.055 44.1321 149.363L42.8001 152.171C44.8161 154.043 48.5961 155.339 52.4481 155.339ZM72.1159 155.051H75.6799V132.983H84.3199V129.851H63.4759V132.983H72.1159V155.051ZM99.2653 155.339C106.933 155.339 112.621 149.867 112.621 142.451C112.621 135.035 106.933 129.563 99.2653 129.563C91.5253 129.563 85.8373 135.071 85.8373 142.451C85.8373 149.831 91.5253 155.339 99.2653 155.339ZM99.2653 152.135C93.6133 152.135 89.4373 148.031 89.4373 142.451C89.4373 136.871 93.6133 132.767 99.2653 132.767C104.845 132.767 109.021 136.871 109.021 142.451C109.021 148.031 104.845 152.135 99.2653 152.135ZM138.896 155.051L132.92 146.591C136.448 145.331 138.464 142.523 138.464 138.635C138.464 133.163 134.504 129.851 127.952 129.851H118.124V155.051H121.724V147.383H127.952C128.492 147.383 129.032 147.347 129.536 147.311L134.972 155.051H138.896ZM127.844 144.323H121.724V132.983H127.844C132.452 132.983 134.864 135.035 134.864 138.635C134.864 142.235 132.452 144.323 127.844 144.323ZM163.584 129.851H160.02L151.92 143.135L143.856 129.851H140.004L150.012 146.267V155.051H153.576V146.339L163.584 129.851ZM171.665 147.095H175.265C175.265 142.379 181.637 141.983 181.637 135.971C181.637 131.975 178.289 129.563 173.105 129.563C168.893 129.563 165.761 131.039 163.781 133.595L166.409 135.467C167.849 133.631 169.937 132.623 172.853 132.623C176.093 132.623 178.001 134.207 178.001 136.511C178.001 140.651 171.665 141.443 171.665 147.095ZM173.501 155.267C174.833 155.267 175.805 154.223 175.805 152.963C175.805 151.667 174.833 150.659 173.501 150.659C172.133 150.659 171.161 151.667 171.161 152.963C171.161 154.223 172.133 155.267 173.501 155.267Z" fill="white"/>
</g>
<defs>
<filter id="filter0_d_316_423" x="36.2086" y="56.1227" width="152.673" height="107.216" filterUnits="userSpaceOnUse" color-interpolation-filters="sRGB">
<feFlood flood-opacity="0" result="BackgroundImageFix"/>
<feColorMatrix in="SourceAlpha" type="matrix" values="0 0 0 0 0 0 0 0 0 0 0 0 0 0 0 0 0 0 127 0" result="hardAlpha"/>
<feOffset dy="4"/>
<feGaussianBlur stdDeviation="2"/>
<feComposite in2="hardAlpha" operator="out"/>
<feColorMatrix type="matrix" values="0 0 0 0 0.516667 0 0 0 0 0.499961 0 0 0 0 0.0990278 0 0 0 0.25 0"/>
<feBlend mode="normal" in2="BackgroundImageFix" result="effect1_dropShadow_316_423"/>
<feBlend mode="normal" in="SourceGraphic" in2="effect1_dropShadow_316_423" result="shape"/>
</filter>
</defs>
</svg>
